# xmcd CD database file
#
# Track frame offsets:
#	150
#	14497
#	31826
#	46969
#	63718
#	81873
#	96428
#	108865
#	124985
#	139615
#	152387
#
# Disc length: 2190 seconds
#
# Revision: 0
# Processed by: cddbd v1.5.1PL0 Copyright (c) Steve Scherf et al.
# Submitted via: CDex 1.51
#
DISCID=8b088c0b
DTITLE=Curtis Grambo - There's Just Gotta Be A Way
DYEAR=2003
DGENRE=Country
TTITLE0=There's Just Gotta Be A Way
TTITLE1=I Am What I Am
TTITLE2=Don't Talk To Me
TTITLE3=Just One Second
TTITLE4=You Were Right
TTITLE5=Moment Of The Spur
TTITLE6=I'm Gonna Knock On Your Door
TTITLE7=My Days Are Numbered
TTITLE8=I'll Be Yours
TTITLE9=Stop Drop and Roll
TTITLE10=We'll Get There
EXTD=YEAR: 2003
EXTT0=
EXTT1=
EXTT2=
EXTT3=
EXTT4=
EXTT5=
EXTT6=
EXTT7=
EXTT8=
EXTT9=
EXTT10=
PLAYORDER=
